<?xml version="1.0" standalone="no"?>
<!DOCTYPE svg PUBLIC "-//W3C//DTD SVG 20010904//EN"
 "http://www.w3.org/TR/2001/REC-SVG-20010904/DTD/svg10.dtd">
<svg version="1.0" xmlns="http://www.w3.org/2000/svg"
 width="320.000000pt" height="320.000000pt" viewBox="0 0 320.000000 320.000000"
 preserveAspectRatio="xMidYMid meet">

<g transform="translate(0.000000,320.000000) scale(0.100000,-0.100000)"
fill="#000000" stroke="none">
<path d="M870 2465 l0 -45 90 0 90 0 0 -195 0 -195 55 0 55 0 0 195 0 195 85
0 85 0 0 45 0 45 -230 0 -230 0 0 -45z"/>
<path d="M1410 2270 l0 -240 55 0 55 0 0 100 0 100 120 0 120 0 0 -100 0 -100
60 0 60 0 0 240 0 240 -60 0 -60 0 0 -95 0 -95 -120 0 -120 0 0 95 0 95 -55 0
-55 0 0 -240z"/>
<path d="M1990 2270 l0 -240 170 0 170 0 0 45 0 45 -115 0 -115 0 0 55 0 55
110 0 110 0 0 45 0 45 -110 0 -110 0 0 50 0 50 115 0 115 0 0 45 0 45 -170 0
-170 0 0 -240z"/>
<path d="M641 1829 c-95 -19 -166 -72 -198 -146 -7 -18 -13 -60 -13 -95 0
-148 107 -240 281 -241 65 -1 85 4 135 29 l59 29 3 103 3 102 -96 0 -95 0 0
-45 c0 -45 0 -45 35 -45 33 0 35 -2 35 -35 0 -31 -3 -35 -36 -41 -117 -22
-214 43 -214 143 0 46 37 107 79 131 47 27 142 30 217 7 27 -8 53 -15 57 -15
4 0 7 21 5 47 -3 46 -4 48 -43 59 -59 17 -164 24 -214 13z"/>
<path d="M1675 1834 c-96 -25 -155 -70 -191 -149 -42 -89 -27 -177 43 -255 55
-62 113 -85 208 -84 153 1 265 104 265 244 0 95 -58 182 -147 222 -42 18 -142
31 -178 22z m132 -111 c50 -23 73 -66 73 -133 0 -102 -62 -156 -167 -148 -46
4 -60 10 -91 42 -36 35 -37 39 -37 106 0 63 3 71 30 100 17 18 39 36 50 40 34
14 105 11 142 -7z"/>
<path d="M1020 1591 l0 -241 55 0 55 0 0 95 0 95 34 0 c43 0 71 -31 110 -123
l28 -67 63 0 64 0 -40 88 c-22 48 -51 98 -64 111 l-24 25 35 30 c67 58 53 159
-28 203 -25 13 -63 18 -160 21 l-128 4 0 -241z m221 139 c23 -13 26 -62 3 -84
-10 -10 -33 -16 -65 -16 l-49 0 0 55 0 55 46 0 c25 0 54 -5 65 -10z"/>
<path d="M2107 1585 c93 -216 108 -245 128 -245 19 0 33 23 96 159 41 88 76
157 79 154 3 -2 37 -73 76 -156 101 -218 93 -220 217 72 53 126 100 237 103
245 5 13 -4 16 -54 16 l-60 0 -53 -130 c-30 -71 -57 -130 -60 -130 -3 0 -33
58 -65 130 l-59 130 -46 0 -46 0 -59 -130 c-32 -71 -62 -130 -65 -130 -3 0
-30 57 -60 128 l-55 127 -61 3 -62 3 106 -246z"/>
<path d="M800 910 l0 -240 55 0 55 0 0 95 0 95 105 0 105 0 0 45 0 45 -105 0
-105 0 0 55 0 55 105 0 105 0 0 45 0 45 -160 0 -160 0 0 -240z"/>
<path d="M1220 910 l0 -240 55 0 55 0 0 240 0 240 -55 0 -55 0 0 -240z"/>
<path d="M1450 911 l0 -241 55 0 55 0 0 95 0 95 34 0 c43 0 71 -31 110 -123
l28 -67 63 0 64 0 -40 88 c-22 48 -51 98 -64 111 l-24 25 35 30 c67 58 53 159
-28 203 -25 13 -63 18 -160 21 l-128 4 0 -241z m221 139 c23 -13 26 -62 3 -84
-10 -10 -33 -16 -65 -16 l-49 0 0 55 0 55 46 0 c25 0 54 -5 65 -10z"/>
<path d="M1920 910 l0 -240 55 0 54 0 3 151 3 152 64 -77 c35 -42 67 -76 71
-76 4 0 36 34 71 76 l64 77 3 -152 3 -151 54 0 55 0 0 240 0 240 -47 0 c-48
-1 -48 -1 -123 -90 -41 -49 -77 -89 -80 -89 -3 0 -39 40 -80 90 l-75 89 -47 0
-48 0 0 -240z"/>
</g>
</svg>
